<?xml version="1.0" encoding="UTF-8" standalone="no"?>
<!-- Created with Inkscape (http://www.inkscape.org/) -->

<svg
   width="24"
   height="24"
   viewBox="0 0 24 24"
   version="1.1"
   id="svg1"
   inkscape:version="1.3.2 (091e20e, 2023-11-25)"
   sodipodi:docname="plus-sign.svg"
   xmlns:inkscape="http://www.inkscape.org/namespaces/inkscape"
   xmlns:sodipodi="http://sodipodi.sourceforge.net/DTD/sodipodi-0.dtd"
   xmlns="http://www.w3.org/2000/svg"
   xmlns:svg="http://www.w3.org/2000/svg">
  <sodipodi:namedview
     id="namedview1"
     pagecolor="#ffffff"
     bordercolor="#000000"
     borderopacity="0.25"
     inkscape:showpageshadow="2"
     inkscape:pageopacity="0.0"
     inkscape:pagecheckerboard="0"
     inkscape:deskcolor="#d1d1d1"
     inkscape:document-units="px"
     inkscape:zoom="32"
     inkscape:cx="11.53125"
     inkscape:cy="10.859375"
     inkscape:window-width="1776"
     inkscape:window-height="1212"
     inkscape:window-x="2019"
     inkscape:window-y="42"
     inkscape:window-maximized="0"
     inkscape:current-layer="layer1" />
  <defs
     id="defs1" />
  <g
     inkscape:label="Ebene 1"
     inkscape:groupmode="layer"
     id="layer1"
     transform="translate(-71.654704,-533.57462)">
    <path
       id="rect2"
       style="fill:none;fill-opacity:1;stroke:#000000;stroke-width:1.36935;stroke-dasharray:none;stroke-opacity:1"
       d="m 83.679976,534.78365 c -1.997226,0 -3.605117,1.6079 -3.605117,3.6051 v 3.60507 h -3.605116 c -1.997226,0 -3.605116,1.6079 -3.605116,3.60509 0,1.99729 1.60789,3.60519 3.605116,3.60519 h 3.605116 v 3.60507 c 0,1.9972 1.607891,3.6051 3.605117,3.6051 1.997224,0 3.605067,-1.6079 3.605067,-3.6051 v -3.60507 h 3.605116 c 1.997226,0 3.605116,-1.6079 3.605116,-3.60519 0,-1.99719 -1.60789,-3.60509 -3.605116,-3.60509 h -3.605116 v -3.60507 c 0,-1.9972 -1.607843,-3.6051 -3.605067,-3.6051 z" />
  </g>
</svg>
